P2
100 100 255
 247 174 252  35 132  23 167  71 145 221 117  32 128  97 212 205
 117   3 112   1 183   4 148 231  70  77 171  97 147 191 229  93
   9 197 239  30  89 250 128 232  14  71 167  95 109 250 181 223
 177  48   7 198 205 105  97  89 201 191 116 174  38 209 188  95
 239 186 167 202 252 160 204  74 206 144  35  49 243  19 136 249
  97  95  61  25  48  63  51 230 220  99  51  24 175 246 191 249
 110 105 222  86 161 232 123 180  29 117 179 218 130 219 155  92
 199 210  64 251 169 123 239 118  92 238 129 204 197 236  19 136
 102 157 154 233 135 111 201 212 201  82 120 163 226  81  74 115
 132 189  90 110 165 191 182 239   8  90  75   2 114 132 110 164
  85 118  32  63  32  71 158  65 128 212 131 240  39  90  40 126
  54 218 224 192  72 224 132 104 229 125 113  73  57 246  34  28
 186   9 114  83  21 197 116 199  10  11  38 171 191 155 229  65
 154  67 138 108 217 124  61  38 159  51 221 155 211 179 167  44
  53 209  55 231 197 212 236 130 191 214 163  27  26 180 117 102
 137  83 201  13 117 214  81 224  63 199 208  35  86   4   5  16
  38 243   2  60 161  79  76 107 229 238 249 160 103  66 139   7
 247 114 168 111 148  88   4 252  30 252 213 100  53 248  69 208
 233 219 225 109  45 137 126 129 231 151  58  90  95 214 221 182
  36  48  80 206 174  24 245  28 214  71 125 178  16 195  71 221
   6 186   7 230 170  85 173 107 165  30  12 187 158 166  27  58
 123 174  81 208  62 252  33  85  22  26 202 248  20 125 199 101
  74 167 101   3  92 188 207 171 224 241  39  46 219 241  13 205
  15 154  98 240 204  71  10  98  15  71 251  41 248 127 115 198
 138 231 100 228  55 153  42 129  45 194  80 153  40  85  78  69
  77  33  14 227 107 143 164   7  26   7   9  39 190 170 118 228
  93 246  63  69 102 107 113 115  21 138 168 115 119  14 120  36
 224  27  28 250  86 115 194  49 165 253 241   8  44  99  48 122
 212 207  21  33  48 106  92 124  20 249  90  57 210  14 144 207
  42 161 141 155 102 197 247  56 122 150  40  67 200 246 238 239
 176 206 215 253  27 131 126 243 116  44  55  46 111 239  64 251
 229 213 131  17 202 185  99 149 160 112 116  26   9  71  91  24
  67 118  51  78 137 207 118 230  63  69  80 135  40  38  89 177
 193  21 216 100 133  89 238 229  35 113 233 158 171 180  34 106
  77 223 113 102 219 156  86 153  98 158  25 219 223  90  30  16
  37 243 113 219 160 126  60  59  94  83 131   1  22 233 230  22
 193  86 126 223 249 131  60 182  80 221 213 178 186  97 137 127
 175  47 254 226  76 144 126   6 142 125 137  36 116 172  15  43
  27   4 250  95 237 151  77 228  84 182 213  92  39 177 197  39
 254 185  45 175 167  84 195 209 143 201 208 140  43 248 209  77
  38 200  29 125  34  61 183 101 115 230 219 114 157 254 118 145
 212  38  90   3 236  83  95  60  14  82  23  28 200 111  77 117
 192  21   2 147  65 134 209 124  88 246  71 126  72  66 198 226
 145 204 140  93  24 116 166 108 218  54 215 186 108  86 116 182
 154 106 130 213 156  17  61 153   3 242  89 171 173  75  45  59
  99 203 133  86 249 247 113 133 146 186  61  85  78 136 239 147
  28 138  94  48  70 237 165 172 125 193 164 107 145 227 221  84
 132 169 104 209 115 195 246 108  17  18 142  82  55  16  74  78
 229  12   3 214 163 176 192  97 210  58 138 251 158  24  74  19
 115  18 208 129 141 236  84 119  65 240 221  31 203 237 127 130
 140 197 102  19 131 129  12 119  79  85 187 125 178 181  22 231
 250 170 226 213 218 222 176 136  21 106 246 194  94 104 143 164
 203 193  65  11  50 200  44 190  45  26 176  82 114  88  51  69
  38  70  82  17  25 160 232  16 185 130 213 185 192 250 207 135
  35 239  79  24  24 230 203 193  84   1 232 108   6 197 245 110
  34 251  56 111 239 153 152 121 121 139 252 157 194  68 196 112
  26 212 234 181 208 139 246 245 131  54 246 210  52 185 236  16
 186 193  49  70 158  58  53   8  32 152 129  51   1 218  97 162
 146  87 162 139  78 118  74 178  46 249 124  63 150  75 247   4
 130 134 188 221  39  17 163 106  42 209 254  44  52  79  66  92
 177  27 111 176  27  52 174 114 239   8  46 234 221 231  33 155
  68 138 104 181  62  48  37 123 103 111 194  19  41  33  92 165
 118 179 207  77  34  37  70 206   5 217 207 155 120 185  88  40
 159  45  25 132 150  56 161 175  94  35  57 218 113 186  40  11
 183  35 186  70 120   4  60  62 190 145 127 219  92 121 182 126
 147  52  21 203 166 224  17   1   5 183 204  38 133  94 230  97
 185 222 122 157  82 245 152  22 193 129 130 144 109 148  78 128
 202 116 153  67  17 136 194  18 123  83 145 250 234 255 249 203
 248 226 127 104  32   5 144 185 241 116 192 228   4 255  82   3
  63 117  31 191  30 125 150  18  30  49  33  13 238 182  74  58
 168 241 244 181 166  31  10  21 147  29  12 117 218 252 103  67
  63   6 135 151  49  21 162 193  68 247 193 240 123 248 234  12
 156  40 133 182 147  80 212  97 176 109 160 250 202 104  45 211
  15 193 142 187  59 229  20 130 179  43 185  34 115  89 144 206
 131 238 138   7  77  38  82  10 100  50 215  54  59  79  53 230
 136   7 111 134  22 222  15 100  95  82 187 249   9  93 235 187
  14  38  61 113 164  92  77  67 210 196 217  97  72 205 117  97
 151 109  64  57 104 119 105   7  17  77  17  42  18  23 237  37
  78 165  97 138 127 124 102  84 179 125  42 119 219 121  55 151
 236  47 130  16 153  40 212 204 116  14  55  86 171 101 200  33
 158 141 194 212 165  10  41 248  25 113 105  78  86  40  35  66
  45 163  79 214  12 219  92 233 112   7  92  56 146 202 195 178
 160 180 178  18 152 203 125 162 199 111 197 119  70 229 134 189
 218  93 254 142  62  99  41 239 159 147 196 244 162  31  47  44
 126  45 223 203 178  82 140  68 103  75 202 138 115   4 220   6
  39 234  45  53   4 146   8 130 222 123 252  58  90 120 200 103
 203 187  44 174   1 152  37 220 237  50 242  19 128  87 150  21
 153  68  47 233  36  49  21  60  53 151 142  18 164 207 231  85
  69 191  75   1   2 216 103  86 216  69 194 127   8 241 119 236
 243 189  19  56 201 242 241  88  33 123 136 236 228   5 230 155
 216  31 202  71   4  12 223  73  93 235 115  68  96 202 196 163
  49  40 112  47  42  41  70   0  63 183 135 128 218 208  19 168
 194 140  51   4 254 212 243   9  65   8  47  99  65 190 126 160
 110 200 252  71 214 209  94 248 217  35  38 122 236 239 144  41
  36 128 186  48 142 157  53 162 193  53 242  99 166 116  44 241
  93   8 233 215 213 250  66  66  16 254 227 111 106 114   1 144
 106  57  41 241 197 251  78  39   2  78  25 254  54 187 122 124
 251  15  48 189 147 243  87 132  23 208 203 255 238  32 166 246
  10   0  80 224 250 112  97 119  35  45 150 116  71 190  52 137
 214  44 164 132 231 119 146  63 125 212 198 253 163  67 225 156
 179  58 140  97 254  55 156 150  77 136  44  65 142 135 190 164
 121 214 114 157 237  65  59  47  98  58 201  33  41 245   0 186
  27 137  14  98 203 239 196 199 101  10 106 196  97 223  86 232
   9  13  26 135  11  34 174 194 176 185  97  72 177  74 211 130
 199 150 120  61  11  89 110 197  94 128 254 130  70 166 179 194
  87 113  67 228  42 152  50 124  96 148  42 190 223  11  26 212
 195 140 240 216 153 192  16  59  33 169   9 255 134 238  98  42
  31 251 163 231 158 139 107 186 223 201 190 128 113 233  85 200
 198 160 249  14   4 204 140 236 107 122 160 184 142 196 206   2
 154 125 231 215 162  43  64 154 202  50   0  82   4 180 194 236
 242 166 238   8 113 102  21  27  32 143 163 112 200 125  50 165
  61 251  55  73  62   9 208  37  53 108 253  21  88  64 224 183
  43  59  77  96 140  24  89  11  63 243  86 207 227  56  77  30
 159 148  44 205  80 242 249 181 105 124  70  42  83  21 109  77
 163 155 160  16 171 221 106 199 245  95  24  92  99  37 194  41
  52 185 181  92   1 221 216 227  13 240  98  78 172  16   0 141
 198  60 242  89  44 194 205 160  86  67 157 123 235  47 234  39
 165 171 133  96  92  22  96 116   0 241 252 188 177  68 246  95
  60  12 115 186 116  60 195 175   7  56 185 237  72  92  35   5
 183  86 201 134 105  57   0  21 119 177 200  24 226  23  60 224
  79  56 136 116  12  17  67 184 253 157 147  43  19  63  61 202
  43 196   3 222 119 101   3 204  33  84 100 131 210 195 135 199
 179 149 187  12 119 186  58  27  49 246  60  49 162  52  72 141
 142 159  24 169 138   9 103 246  81 154  49 180  51  94 254 179
 169 242 164  19  58  19 226  75  67  80  12  11 193  18 222 189
  43 196  25  96  68 125  47  41  56 142  64  65 201  97  98  12
  51 157 200 230 181 231  54 145 207  31 239 203 247 107 211 129
 128  19 224 158 170 162 120 140   7 211  96 135 239 159   6  26
  43  76 145 208  17 227 250 238 159  31  89 235  25  44 155 176
  33 154 241 102 240 123 233  84 214 243 126   4 190  23 250  71
  42  50  54 236 177 236 248  70 170  64  36  29  65 171 155 136
  75 151  59 220  46 151 142 167 113 245  18  69 122  58 199 206
 165 132 181  71  98 219  34  49  51 119 187 176 190  59  10  14
 127 131  86  24 192  35 186  93 238  37  46 115  21 137 246 200
 178 205  10 133 217  74 211 195 191 194  73 174  34 121 218  18
  22 132  46  26 116 109 213  33 215 245 237 128  63 109   8 243
 221  94  22 135  73 218 215  14  72  59 133 187 163 126 137 134
 229 104 240  53 209 111 128  43 251  21  50 151 226 246 219 200
 150 212 159  45 238 112 222 124   9  75  15 119 237   6 241 242
 238   7 132 232 140 125 157 114 166  49 150 112 248 178  95 189
  10 145 198 191 143 156 167 175 250 159  19 142 160  78  42 244
  87 114  47  33 188   5 116 133  69 204  56 188 167  43 215 170
 196   1 191 199 103 178 226 217 224  23  96  49 245  37 184 145
 160 220 171   7  57 237 109  48   0 228  22  57 248  32 177 160
 154 140 113  96 235 130 212 112 114 217  98   2  81 109 168 216
 225 211 122 198 173  21 133 207  62 183 214 200 211   9 148 230
  66 154   4 146   6 216  68 202 186 239 220 198 167 121  81  86
 238 218  87   4  13  90  57  62 103 173  29 143 163  94  73 214
 209  95  98 221 138 250  87   9   9  88  15 214  33 218  12  36
 173 245 198  50 180 181  84 160  75  52  86 125  78 134  83 106
  15  33 217  16  16  13  36 167  81  72  35 165 196 201 219 125
  23 173  78 110 186 144   5 123 194 162 132 143  39 186  63  24
  76 121 128 122  84 134 203  69 173  54 112 200  10  72  95  93
 102 199 170 224 140  20  84 139 163 155 131 211  23 230  18  39
 249   4  83 106  28 124   0  41 234 106 115 189 138 247  22 248
 176 238  74  19  92  14  34 228  81  12 252 224 222  36 220   8
  24 183 195  81   4 195 146 133  62 227 200 144  15  43 254  25
 137 191 165 230  61 246 175 111  98 120  31 107 197 241 156 171
 160  73   6  99 194   2   6  59 254 126  91 189  25   1 171 116
  35 222 230 255   3  86  84 254  98 117 169 109 231 193 140  49
 204 113 231  61  46  43 213 203 252 152  52 235 115 235 157   9
  25 246 170  42  71 169 187 144  24  14  40 140 103 221 161 227
 189 172 133 113  16  47 251 246  21 234 158  79 179  14  40 120
 206 172 220  38 219 184  33 152  33 159 112  26  53 101  93  72
   4 177 136 156 165  63 153  63 107 109 171  60 145 206 234  83
 156 126  72  24  94  15 150  50 113  96  63 196 108 243   9 113
 181 226  20 108 104  32 126  45  25 238 222  77  56  98 172 119
 248 172  90 214 146 196 247  85  72 209  13 214  47 106 160 113
 104 189 213  77  85 100 101 178  39 100 199  24 252 194 143 148
 124 254 198 163 129 135  17 150  86  73 178 182 151 217 154 199
  76 111  41 190 197 247 144  54  99  44  84  82 207  29 106 185
 161  21   8 203 227 122  78 117  21  97  26  29 150   6 177  62
 255  46  56 236 238 218  53 106  46 141  15 169  80 218  20 106
 124 252  52 132  33  46  43 210 103 178 162 123  13 186  56  65
 118  22  74  69 230 249  37 209 158 171 232  15 197 129   8 180
 224 145  74 158 171 146  48  43  89 236   0 251  41 182 248 189
 230 137 175   7 217 132 134   0  17  87 144 137 146 103  73 118
 108   2 148  78 182  28 173 102  66 128 218 226 224  38  88 183
  37 105 255 142  24 152  90  96  17  18  57   1  52 129 117 145
  27 138 181  86  97 248 152 171  61 150 124 130 120 200 170 185
 193 163  38  19 134  97 132  64  65 140 178 213 241   6  36 217
 132 235   2  45 238 189 116  97 238  31 199 167 215  49  64  67
  78 179 231  95 106 157  34  29 158  75 137 176  39 191 116  75
  30 192 113 196 168 241 255 122 232 162 232 182 231  91 163 141
  42 112 112 219 217   5 103  33  41 199  99 144 241 200 195 196
 234 115 170  78   5 196  75  75  69  82 187 189 215  11  22 123
 213  57 118 113 203 104 191 175  62   0 117  54  63 240   1 146
  63 170 113  15 224 223 196 186  44 248  21 131  89  22 211  81
  49 231  92  51 156 125 225 242  74 169 177  48 143 251 148  63
  34   5  25 184 211 244  47 117 208 133  75 157 147 125 179 137
  55  26 239   1 167   1  97 114 142 115  83 247 179  82  69 116
 201  69 101  87 123 234 131  57   3 232 255  14  86  11 139   3
  73 117  43  77  13 187 157  99 163 219 176  76  85   1 132 234
  87 244 113 226 218 218   0  56 141  42 175 192  53 144   3 196
 218 139 213 118 155  39  51 201 144 253  99 109   9 238 190 219
  82  38   8  94 163  96 135 188 216  52  84  66   3  27 229 132
 254 247 244 241 155 193   3 247 192  51 108  29  31 205 120  38
 129  41 218  87 177  32  85 190 183  30  73  43 179  92 158 243
 138  73  48  93  85  62   0  20 140  61  11 119 160 175  38  40
 151 144 152  41 183  88 104 174 174  25 250  20 221 237 136 187
 250 102   2  57  38 169 108  61 220  54  87 212 194 161 228 188
  74 224 246  95 154 184   6 130  99  94  22  23  67 208  46  80
 132 248 206 168  51 158 164 245 184   5 249 238  41  71 133 118
 232 124   4  69 195   1 141 212  18 120 181 148  50  90 151 191
 251 150 251  42 103 109 206 113  50 167  39  78 181 234 236 199
 140  41 191 176  57  51 111  49  13  54  37  93 246 193 188 172
  48 116 140 200  42 251 121 231 144 136  89 157 150 154 212 142
 227 248 198 172 108 117 231 187 170 129 168   8 179 106 249  53
  65 116  10 177  42 180  65 189  65  50 201  90 182 173 234 172
  65 142  71 223 231 124 194  94  48 118 105 108 188 120  67 137
 230  29 232  30 254 107  87 130 129  11 136 159  81 246  46 247
  34   4  51 125   2 246 118 226 206 220 244 141 102 213  84 210
  24  43 216 132  10 202  36 183 227   1   6  21  65  68  46  23
  92 240 147 233  49  49 114 178  75  20 129  72 113 238  13 124
  33 145 192 145   6 190  46 153 192 167  77 132  86 199 210  61
 237 191 141 119  77 177  22  16 131 198 124 224  16  31  14  24
 121  52 228 113  48  58  52 122 163 236 130  10 166  35  87  95
 230  24  72 139  11  86 165  71  62  93  64 245 140 248  72 164
 100  31  19 187 214 216  75 245  44 157 216  19 151 141 226  45
  35  68 178 112 174 165 127 147 119 240 110 166  40 156  81  77
  67 221  23  59  73  25 246 237  38 187  95  62 163  59  71 237
  77 247  82  28  74 236  56  75  31  32  57  76  81 176  46 207
 238 228 155   0  67 250 115  92  63  81  73 181 201 148  26 124
  80 156 180  12  14   5 203 122 232  15 212 178  17 143   1 232
 173 245  37 114 208 125 218 177 251  28  83  44  16  20 100  27
 189 243 221 118 144 159 146 117 122 219   2 219 215 193  13 135
  33 211 142  51 148  91 233  30 187 149 180 222  20  57  12 182
 174 138   7 118 169 196 191 222  38 212   0 243  98 205  48 163
  61 218  11 106 141  38  42 192 231  51  27 146 192 125  31 188
 228 223   1  24 153 206  97  22 234  58 214 189 240 192 222  34
  28  67 166   1  47 232 219 102 123 247 179  54 175 217 247 234
 225 204  71  99 222 227 116 164 121 156  95  21 110  41 115 174
  28 190 164  67  27 242 128 159 254 208  88 163  34 229 139  91
 133   8 136  29 215 130 170 182 163  75  73 146 236 207  17  62
 115  71  41  28 178 199   8 233 100 182 110  67 116  92 111 252
 251 157 146   4  78 201  23 138 184  91  17 181 177 216   4 146
  87  57 165 210 143 148 243  80   4  76  10  21   3 209 202  89
  37  64 249  15 253  63 155   5 145 185  12 147 130 171 180  23
 165  49   7 118 197 116 218 111 243 144  54 140 199 151 201  57
  35 121 168  34 109  88 202 102  28  51 187 153  19 147  36 223
  86  84 141  87 181 142 107 122 103 112 188  73  75 247  34   2
   9 177 246  64 153 199 233 222 219 149  23 228  54 211 245 164
  21  11 137  27  85 236  96  32 166 150  82 125   9   7  20 162
 190 251 205 231   9  38 201  90  61  45 173  13 252  25  58 174
  91 164  74 242 248 237 236 207 172 246 126  61  50 153 193 126
  63 178 166   9  23 183 237 228 206 151  21  89  74  42 243 249
 253 191  98 121 109 245  50 100  50 181  96 104 136 106 204 127
  34 164  72 215  40 142  50  66 152  44 246 240  91  18 253   0
 100  27   3  51  69   5  18 122   5  64  87  48 123   8 129 206
  33 183 175  84 206 245 177   4  16 196  48  10 229 220 139 115
 160 115  85 142 109 161 219 164 226 183 166 194 203  93 158  68
  92  16  90  59  34 227  84 216   2 213  33 205 246 240 113 130
 159  78  89  36  20 123 242 191 214  41  30 143 186   2 137 122
  60 171  46 108 153   9 139 165  63 139  43 158 165 146  47 157
  90 220   1 158 112 141 225 161   9 205  58  37 146  23 136 219
 230  37  31 221 249  25  26 248  99 205  64  30 189  13  91 227
 137 226 178 243 210  82  58 207 255  48  73  19  64  84 177 184
 109  74  90 169  94   1  51  83 223  88 104 120 178 178  82  63
  18 173  93 126  59 210  78 106 177 119 166 224  39  21 100 113
 230 175  58 108 132  59   5   4 116 107  95 161  19  29 237 216
  82 222  81 128 184 120 217 106  75 168 223  37 185 224  94 147
 160 195 241 123   0 120  18 180 133 152 196  16   7 149 126 115
  61 206  10 118  15  41 200  94 236 166  88  68  76 179 175 177
  25 110 238 178  34  38 173 104 113  11 199  61 194  37  92 197
 121 142 207   4 209 230 163 105 131  32 236 110 216 189 151 171
  89  18 202 144  84  51 185 152 168 185   6 170 205 205  11   2
 136 115  90  97  71  31 182 233 199 182  57 165 237  82  37  14
 125 117  69 132 221  19 115 207 138  62 119  61  86 157   4  40
 136  66  41 224 124   4 115  95  75 131  56 178 188 247 129 233
  57   8 129  98 154 214 110 190 180 204 228  45 104  42   5 213
 246 159 186   6  57 121  48 149 251 184  96 249 211 110 132  57
 127  52  83  23 159 222 226 248  78 184 137 216 243 116  31 160
 252 192 186  35 122 169  44   9 245 232  68 216 214 172 251 120
  28 110   4  23 175 239  56 154 166 217 165  25 105  80 248  56
 218 167   8 147 214  89  98 237 227 203   8  34  97  42 103 195
 192 113  85 119 134 237 205   1 216 225 140  49 185  28 139  53
 150  60 212 216 220  71 182 251 120  83   1   0  39 198 162 161
 157 107  12 180  95 228 222 212   5 158   6 223 115  55  40 220
  77  56 245 108   0  55 118 204 121 220  84 139 157  14  82  85
 181  83 237  29 153  60 199  22  79  81 247  91  72  47 176 189
  55  63 116  40 157 119 167  13  22  52 137 106  88 126 158 112
 193 141 137  16  73  91  44 112  67 161  90 240 182 246  91  20
 203 118  98 163 133 180 159  45  55 196 171 239  22  96 252  60
 221 112 146  91 143  51 104  64 232  17 148  21  46 220  16 117
 108 202 149 135  25 174  87  45 187 184  39  27 120  24 178  30
 255 149 169 104 171 134  15  17 148 183 101 236  82 135 228  71
  48 251 164 216 173  75 189 194 130 219 118 217  90 202   3 157
  47  39 121  57   3 224  86  77 243 142  11  35  97 212 127  99
  45 234 103 247  48  86 154  30  91  11 199  61  43 247  64 166
  14 106 155  66 250   0 115  44 104   6 186 181 174 169  13 131
  61  41 249 239 190 234 141  17  31 175  64  34  84 121 249  85
  92 208 123 206  87  37  84  98   9 195  22 228 174  77  90  38
 243 198 128  87 131 133 240 120 132  29  45  30  27 119  46  18
 168  26 144   6  42 124 145 236 119 186  64 135  28  98 183 173
 172  41  82 189 191 129 238   6 147 110   3  51 218 239 171  23
   3  12  58 145 171 207 159  85 104 202  92   9 105  29 248 233
 170 112  44  25 141 121 102 123  64 139 223 115  84 216 201  66
 120 178  68   2 252  62  87 125 101 243  27 238 233 155 207  87
 232   1  43 168 240  49  89 142 167  75  90 196 226 184 165 114
 240 100 232 186 136 250 125   2  86   5 114 146  89  45 243  31
  97  10  93 139 175  84  56 145  80  61 176  73 178 187 164  49
  27 107 237 190  12 186 244 140  43 155 133 250 255  16 138 124
  63 219 234 138  75 240  30 198   8  70 193 145  20 143 131 227
 189   7   4 198 196 238 104  79 171  63 106 201 155 176 197 214
 110  93  90 200  65 126 145 125 100 238 207  18 108 143  87 253
  81 231  16 202 129 228 122 211  52 175  75   3 168  53  72  58
  54  48 232 104 168  57  59 203 226 147 155 103 101  95 163 167
  92 131  22  67 105 123  24 141 205  59  19  32 238 110  38 227
 225 167 150  46  23 114  51 246  72   6 127 147  54   3  96  48
 157   7   4 152  94 178  54 226 211  55  12  31  38  30 166 177
  90  26  68  39 227 118  78 208  35  40 250  94 118  96 195 152
 184 178  63 155  21 198 141  58 112 137 240 211 210 136  53  25
  94 168 236 135  34  93  19  88  41  72  38 102  70 177 252 126
 253 109 214  10  51 251  47 238 250  42 200  55 191  11 169  55
   5 181 148  16  99  88 233 237  24 131  47  62  37 106   0  47
 116  74  72 237 213  89 149  50  58 166  28 163 131 238  43 197
   7  28 164  77 205  24 231  63 144  17 130 210 205 141 175 255
 230  47 213 161  49 134  35 118 108 205 108 207   0 231 253 107
 148  36 144 169 238  98  24  80  44  15 216 237  57  74 224  20
 208  89  91  84 135  77  53 248 217 180 124  39 240 110 248 229
  56 131  98 166 245 166  70  71 162  17  18 182 127 153  90 232
 202 171 241  75 135  95  44 113 167 148  23  68  46 125 101 198
  47 245 201 216 190   1  56   3 219 160 246 152 161 150 221 145
 180  28 212 239 221 153  19  25  15 179  46 197 148 113 187  46
 199  88 219 137  33  95 251 111 251 111 229 156 145  76 249 210
  39  84 200 136  94 118  56 169 255  55 164  14 200 167 103  78
 253  26 160 101 251 190 214 105 117 180 171  28  86 169  24  61
 200 165  57  94  76 161 213 185 115  10 143  25 196  15 211  22
 165 167   3 201 147 106 204  80 115 150 112  43 242 208 217 116
 139  74  96  39  60 131  79 229 167 226  23  20 109 176  79 168
 131 102 133 215   2  36 192 247 205 180 242  12  40 112 133  84
  92  21 244 213  48 186 139 230 208 234  14  29   1 117  76 230
  24 165 138  36 163  53 148  67  77  14  36 241 240  44 204 135
  42 206 106   6 103 216  75  70 187 253 166  49 223 158 103  47
  15 242  64  90 175  88 153 254   9  73  77  30   7 121 187  62
  51 104 186  63  82 177  98 250 242 222 221 204 252 123 215  68
 219  11 137 229 176 123 107   2 150   8 179 248 218 182  73 153
 125 195  42 234  13 152 233 131 150 215 167 246 240  67 160  73
 201  10   7  51 161 112  85  30 209 213 137  69  42 164 120 100
 131   4 123 163  29 162 147 116 161  73 234 153 218   5 223  71
 147  66  65 147  62 251  70 235  30 177  18 156 206 191  11   5
 223 167  59 177 152 133 176 161 197  23  78 183 192 182 245  38
 212  47 221 174  38 189 168 245 218 236 109  72 208 150  77 189
 163 161 111 129  75  53 147 137 125 129  35 240 197 234  20  96
 179 162 113  43 215 121 163 126 139 203 177 127  59 246   3 203
  26  88 202 186 159  51  50  83 146  79 204 163 240 121 133 167
  23 177 114  74 228  79 100 144  70 168   8 127  17 108 168 101
 219  87  31 239  99 144  36 212  14  88  46 222  74 144 181 138
 229  34  85 223 110 120  18 193 161 197  10 105 204 181 233 113
 220 229 136  90  51 137 252 251 192 215  84 158  13 195 220 172
 243  51 219 184  63 250 102 155 212 111 111 109   6   9 231 201
 169  34  40 214 250  41 136 111  61 171 174 146 186 146 208 243
  26  10 185 244  48  94  60 114 103 136 146 135 211  24 212 107
 194 201 108 138  82 248 135 129  62  62 178 111  50  39  16 110
 219  78 202 225 217  38  25  93 194  44 171  59  67  19 235  67
  99  36 234 222 241 129 220 136  46 127 181 250 205  97 181 220
  92 168 212 131  55 222  15 145 243  61 246  36  46 148  30  54
 197 189  24  99 141 103 152 130  20  30 108  84  78 214 203 148
  61 254 122  83 165  36  74  49  69  56  40  42   5  68  58  46
  59 102  62  29  57 248  41 162 253 165 158 214 136  44  29  14
  75 163 174 148 154  14 143  30 174  14 215 230   1 225  54 203
 249 122 148  27  56 229  26  12 238 138 146 163 118 181 150  96
  70 113 136 237  94 131 197 117 223 198 145 222 172  88 180 217
 213 254 112 137 186   2  83  51 122  66 153 212 190  83  50  35
 194  59 149 155  51 233  98 119 187  15 171  35 157 188 185 233
 170  89 247  71  24 155 144  34 101  50 172 224  91 206  99  67
   0  45  44 132  81 114 255 103 160  22 200 254 110  18 222  76
 172 123 105  16 154  91 122  94 159 237 165 150 147  21 137 225
 220   4 136 200 153 247  39 237 109  93 247 146  50  80 233 105
  63  42  35 205 204 179 179  36   7 209 201 142 241 234 150 154
 179   7  85 199  27  51 133 223  75  58  36 125   3 198 224 116
 234 111 110 224 254 164 242 178  37 137 114 122 182  93 101 147
  73 255  83 104  78 158  53 114  71  56 229 218  10 101  20 181
  38 247 113 125 128 110  38  40   4  88  84  98 204 130 173  84
 175 247  85 143 138  91  77 128 157 236  53 169  13 239 164 246
 133 223 183 227 198  82 201  47 135 143 112  62  64 198 167  96
 251 230 217  98 188 230 194 231 142 108 167 109 131 167  68 133
 213  18 103  53 150 196  13 113 243   6   4 149  71 218 211 248
  87 232 221 215 173  48 130 170 235  24  53  17 126 237  14   6
 181  80  76 156  88  70  65  20 111  80  86  11  10  95  32  35
  24 141   7  32  56 160  97 101 136 250 163 120  67 186 191 170
  81 173 156 148  92   2 138  82 115  75 244  74 229 221  47 246
   0  67 162 180 203  88  80 159  16 158 242 212 179 195 239 202
  10 136   3 109 133 141 158  66 150 159 130  45  88 228 144 141
 168 206 231 238  32 193 121   6 208  94 197  77 138 152 211  22
  25  61 252 112 195 229 122 113  84  69  50   2 220 129  89 106
 137 236 101  98  87  78 184 221 133 223  87  46 238 230 238 236
 153 130  33  47 205 204   2 149 243  79  58 175 135 153  38 216
   1 244   1  89 153  15 137  27  41  75   7  47 228 199 181  14
  24  46 203  67 136 212  14 209  39 140 224  89 102  69 227  46
 232 104 245  39  43  11 122  46  85 228 171  84 148 194  93 174
  96 213 250 204 198 244   2 249 131  39 186 171 126 103  76  12
 122 213  49 132 173 101  97  76 220 149 116  93 102  74 147 226
 123  50  49 214 184 244 168 176 255 103 100 203  83 173 132 140
  66 246 198   8  46  44  45   0  40 223  61 127 200 238 150 254
  93 198 123   4  30  33 128 144 242 198  76  88 252  61 255 238
 233  55  24 156 243 155 148 155 184  15  14  33 142 141   9  97
 230 246 130 100 117 143 181 128 120 246 232 221 247 240  61 116
 230 235  68 233 181 190  28  59 226 196 144  25 116 242  41 182
  98  28  78 150 127 175  78 155 161  16 222 137 222 144 126 197
 204  14  87  82 200 254  27 146  41 232  51  77 208 128 209 212
  97  48  10 177 162 224 244 123 184 252 162 229 157 109 198  46
 168   0 201 101  83 244   8 142  17 241  12 253 221  61 157 130
  28 117 199 147 119  94 181  84  81 167   4 209 174 135  72 218
  66 236  31  82 130  76 152  16 149  63  40 196  95 169  35  23
 199 157 147 149 230  36 100  87 102 212  59 224 172  32 191 209
 139  80   9  56 163  20  46 249 156 238  71 246 192 150 199  36
 134 237  25  46 158  86 247  31 190 110 246 179  25 132 187 210
 189 227 176 187  99  18  86 170 107 243  47  51  50  67  13  99
 173  11 161 143 150  67 114  36  45  57 229 148  75 149 196  16
 189 190 115 179  45 128 243  83  22 170 101  97 195 123 175  15
 218 157 149  51  53  71  15  93 138 154  29 173 243 166 152  60
 124  16 118 152  11  61 213 185 206  84  79  96 191 175 139  74
 218 168 174   5 123  38 225  33  78   4 184  79 227 181 152 218
  30  49  29 193 222  39 250 121 171 189  77 240  76  94 154  55
 168 147  46  72 103  60  92 255 183 254  55   7 195  95 121 117
 182 142 229  12 165 206  69   5 115 162  30  39 178  86 214  53
  66   2  27  67 140  72 143 137 131  22  95  72  31 182 235 252
 107  14 217 172  92 197 134 182  25  27 231 210 106  11 187 174
 175 201 209  18  15  75 106 222 160 206  93  69   2  76 176  32
 129   5 122  92  76  37 157 107 158 150 107 248 216 164 191  45
  51   7 156  46  40 124 247  81 252 217 141 248 159  57  99  85
 143   5 141 169  96   6 161  97 154 180  25   6 248 251 163 134
  21 221  98  70   3  38 131  22 147 199  90 146 227  86 206  63
  89  46 128 128 100   4  11 240  36  35 157 180  37  54 244  11
 202  26 165  45  12 244 223  72 141  11  93  76 252  34  86 102
  83 162 160  54 156 191  68  35 238 201  74 209 108 170 158  67
 171 184  45  63  42  81 242 138  27  70 107 245  48 159 192 116
 188  58 135   6 234 160 103  61 206  74  37 230 153 100  47  50
 147  11  67 190 231  60  83 198 213 172  47 225  60  76  22  36
 215  57 182 253  54 200 215 197 185 232 122 251  62  57  77 169
 169 192 137 180  42  92 225 242 118 223 245  63 137 100  89 114
 221 234 232 196  96  56 244  91 227 125 189 163 228  93  11 187
 193 210 228  22  78   4 228 177 176 197 175   1 100  39  98  24
 154  50  82 115 255 234  69 183  26 220   1 122  41  49 185 233
 198 144 213  44  12  99  91  29 172 180  99 147  11  36 143  47
  35  54 142 239  67 236 158  29  87  95 174 224 157 141 239 159
  93  95  90  70 215 104  76   7 113 165 145 231 221 164  54  79
 138 138 104 140  97  29  63 213 176  12 184  71 232 137  92 212
 251  52 150 224  97  64 222 210 211 103 225 231  25 215 167 212
  55 144  14  59 131 123 218  42  92 221  26  42 118   8 158 139
 207  11 243 157 157 105 120  39  33  66 237 121 130 205 197  25
 155   8 242 114 177 194 115 201 162 168   5 168  96 180 215 240
 104 149  86  61  82 149  99  76 178 133 173   5 178  14  21  41
 135 129 231   3  70 129  78 216 137 107 189 222 181 201 101  20
 233 255 216  90  32  53  47 125   4 211 121  70 103 234 244 124
 221  42 201 178  16  36  48  67 224  13 195  82 209 157 252  81
  40 186  41 103  61 106 202  74 174 174  83 201 165  89  12  27
  87  83   8 186  38  96 151 210  43  29  47 115 182 125  22 184
 146 104  99 178 195 205 237 186 167  79 186 206  89  86 226 155
 106  78 217 103  87 179 235 150  62  19 213 197  23  76 248 183
 190  48 240 223 167 223  71  44  65  19  65 218 102 145 170  23
 211  31 106  87 202 208  65  88 201  58 215  38 112 112   3 233
 168  57 238  52 214 202  86 109 101 202 177  98 126 151  35 176
  67 154 142 101 183 212  47 246 121 129  72 243 130  54  36  39
 166  30  86  76  39 100 215  57  57 132  95  26  41  28 164 119
 108  99 184 111 119  41 117 236  92   2  94  59  97  89  33 228
 174 147 150  33 146 217  33 146 177  28   5 193  74  64 172 125
 195 160   3 189 176 156 226 130 158 173  38  21  92 219 239 143
 190 130 121 100 124 123 226 122 165  23 185 180  24  11 139 234
  19 143 246  31 107 125 247  55 189 151 200 189 230  47  31 153
  45 192 165 159   9  65  38 247 161  96  58 126  66  52 117 203
  57   4  23 182 147  60 136 186  76 167  90  31  18 146 133 229
 150 253 117 137 101 149  39  12 103 191  81  95  40  29  53 123
 131  95 109 169 120 127 250 207 247  33 252 120  64  41  22 248
 244 225 197 141  70 117  58  75 116 136  57  91 148   6  24 125
  59 134  56 203 126 224  53 228 231 200 240  32 155  51  14  38
  84  52 212 105 206 204 139  84 186 220  66  13  39 167  30  28
 120 200 188  49 237  91 208 197 207 105 133  35  92 175 114 126
  55 223  14 157 133 249 251  51  80 145 123 228 219  92  20 247
 173  57 107 126 240 182  55  68 106 121 124 167 108  88  85 210
 226  41   9 118 164  29  81  58 180  60 130 211  29 207 144  74
 227   7 227 195 164 126 217  62 158 210 135 131 178  93 174 163
 194  36 214  95 149 254 118 171 231 105 239 139   5  86 122 237
 103 243  57 238 171  68 133  41 104   1 140  14 107 249 186  55
 165 100   7  22  47 209 136 155 151 175 241 186 249 167 240 188
  91  72 234 156 248 152   1 101  66 221  42 247 104 216 110 182
 199 212   8 163  82 111 182  82  96  75  63 156  97 222 182 156
 168  96 129 205 115  52 199 130 250 158 243 142 181 201 122 175
 211  56 142  47 177  13 195 217  66 141  60 236 226  39 172  94
  69 213  10 234 133  25  12 137 209 128 154  34 123 219 111  17
 183 103 141  92  45  45 174 223  35 101 232  73 199  87  84  79
  57 140 196 174 163 232 214  30 179  60 250 178 201 142 143 128
  77 189  38  88 131  42 220 238  71 121  59  54  24  22 140  58
 203 212  66 166 142 137 238 171 226 131 106  35 118 240  67 244
  71 132 198 112 168 146 231  84 185  46  64 182 198  51   0 226
 206 129 195 201  73 130 211   1  26 182  62 116 202  82  35 200
 159 202 197 254 162  42  43  74 228 161 245  68 107 225  78 227
   3  55 146 249  10 144  10  13 152  73 153 218 215  33 204 129
 132 157 150 108 235 166 176  32 249  78 127 107 170 178 144 140
  65  86 190 213 196 142 200 206  58 101  65  37  39 125  99 238
 102  44 196 198  43  62  14 192 230 145 134  92  48 120 131  34
 104  36  99  40 106  59 201 153 162  16  93 239  16 172 215 134
 153  10 247 214  39 208 108  52 243 109 161  53 213 216 173 173
 150 179 180 241 246 198  68   2 210 232 125 166  12 121 167 203
  93 227 190 208  53  37 216  53 192 137 223 114 124 123  36 210
 199  86 104  25  49  51  85  99 117  48  22 127 207  66  85  22
  91  28 118 155  49 246 130  89 111  95 130 205 194  39  11 207
 105 101 105 145  11 173  27 176 178 126  53 216 181 187 194 255
  42 253 213 184 236  71 200 211 175  72  11 236 126  37  99  92
 185 172  84 132 119 203 250 123 118  97   0  35  90  97 154 192
 224 250  29  69 100 128 191 214  50  37 207 173 131  75 124 102
 250  17 244 196  42 157 235 167 234 251 183 124 191  90 223  33
 150 102   8 250 116 236 204 160  43 125  71 166  20 216  40  92
  71 142 143 211  43  57 202 159 194  31 185  34 116  68 219   0
 215 112  77  36 232  55  31  78  73 183 205  27 173 125  98 120
  39 232 221 165 106  92 222  82 158 164 202 121 234 228 191  18
  77 193  89  44 231 238   0 127 166 208  79 191  94  14  14  39
 100 129  33 225  70  73 163 225 135  22 212  52 240 191  90 253
  95 221  62 120 202 227 206  94  51 163 129  23  31 199  83  69
  28 102 119 221 110 227  99  59 154 253  84 101  89  86 238 216
  85 230 236  21 247  12 176 222  89 139 113 117 237 236 183 172
 216  52  14 135 252 216 164  29 125  54 173  23 181 190 176 175
 250 203 128 132 132  18 223 128  32  96  85 110  61 101 149 186
 185 204 152 175 119 106 209 166  54 162  81  79 227 189  28  32
  48  22 135 210 158 118 254 151 130 113 134 254 215 128 179 199
 181 138 202  78 160 255 213 117 250   8 183 120 116 165 205  18
 220   0 114 125 251   3  43 100 167  61 157 129 218  75 133  22
 155 139  47  54 218   1 154 249 102  61   1 130 142  74  66 239
 205 113  55  20  90 190  21  70 187 177 210 119 196 129  75 208
  32  78 124 151 100 193 131 132 167 157 183  35 126 127 251  25
  39 193 210  86 183 103 212 248 255 147  32 175  84  47 144 168
 215  66  36 112  33   1 248 153 114 217  97 249 125  94 126 143
  17 183   0  25 246  60 128  20  42  14  44 188   0 219 127  23
 253 111  77 113  52 134 104 137  57 118 104  82 231  44 158 183
 106 221  16  73  17 177 251 232   0  49 131 124 111 242 185 163
  10 223 112  66  19 123  50 224  47 125 135 246  20 222 187 111
 214 202  96  45  64  24 182  45  29 112  58 255  45  94 232 169
 119 245 123  63   0 128  39   9 206 133 233 162  92  46 137 211
 225 225 206  35  10  48 128  85 179 173 190 128 195 190  70 105
 209 125  17 120  42 198 127 122  76  31 247  40  66  78  43  25
 148 132 255 157 134  70  43 102 144 243 254 191 146 147 225 235
 161 231 144  21 203  49  97 159 105  65  50 170 251 139  81 153
 223 232  49  37 231 130 192 130 146  25 142  12 204 127 103  54
 229 153 250 247  60  12 152 163  85   1 223 212  63 151 193 140
 170 155 150  96 123  58  41  62 148 219 235 205 149  80 221  76
 232 172  67 117 198 139 212  71  52 141  25 190  56 161 189 169
 118 181 240  22 142 210 124  10  19 175 106 182 121  41 136 116
 219  59 157 214 148  14  76 171 111 108   0  19  91 253  77  90
 173  66  74  29 113 219 170  41 176 160  44  63 215 148 189  23
 118 215 170  77 181  58 208  82  54  24 103 213 224 157 183  43
 191 166  79 170  65  66  76   0 170 188 104  84 199 210 116  47
 236 210  56 199 198 130 110 191  83 176 195 117 233 172  99  47
 106 239 185 125 199  77 109  95 163 167 139 143 185 104 245  39
 227 127 109 215 137 128 193  27 226  58 163  35  74 214 221 222
  69 212  75 115 175 111 170  37  36   7 249 254 238 153  24 218
 111   0 149 155 106 211 200 181  73 176 206  65  62   3  82 121
 159 180 238 201 139 225 180 238  14  40 125 203  14 121 210 121
 133 127 246 123  95 171  68 117 117 200  22 155 241  79  71  50
 157 195  61 209  93 223 182 109 228 248  39 126 203 175 209 190
 229 195  31 128 182 167 148  51   0 187 129  93 161 216  15 174
  33  61  37 125  51 137 166 157  32  42  22  93 216 108 111  44
 113 118  52  58  91 252 129 203 211   2  13  76 209  78 201 211
 134 243 114 172 158  15  91 214 173 167 234 200 220 134  37 187
   2  78 215   9 151 249 118 236  45 186  16  34  53 103 235  62
 124 125  68  44 169 213 231  64 106 234 226  87  30  71 172 159
  52 248 133 108 194 103 105  41 239 108 225 104 131  81 155 179
 239 118 130 116 243 130 214 199  53  67  14 206 157 202 208  35
 238 255 124   4  23 140  16 178  14  10  29 145  17 138  18 229
 101 204  96  60  54 133 177 103 238 202 174  19 100 177 214 104
 210 209 158  69  83  36   0 176 134  24 132  59 156 250 187 175
  63 199  16 228  82  40   0 101 223  96 130 130  70   3 154  20
  51 135  24  98  33 208 205  40 239 107 242 186  35 108  84  41
  30  39 100 225 205  44 139 115  21  92 134 131   4 224  27 190
 208 122 192  12 159  69 167  57 193 138  65 209 230 152 115 103
 112 176 186 136 208  32 123 134 169 194 233  83 194 219   9 205
 177 113  55   9 169 189 104 175 252 126 168 128  11  59 215  50
 254 193 164 200 133 190 180 127 225 212 206   3 131   5 203   7
 151   4 198  96  54  83  88 145 184 131 253  23  68 173  58 181
  28 115 202 182 203 188 125  46  63 203  78  12 181 243 164 220
  87 184 192 166 194  51  69 255 180   5 147 210  67  29 107  95
  29  28 101  66 232  79 100  22 108 138 236 224  49 140 235  41
 114  25 169  20 211  38   7 182 108 235 181 138 231 169   6 195
  72 113 135  32 144 202 229 255  71  68   9 116 243 179  82 230
  44 112 148  73 237 230 185 231  42  86  50   9 155  84 201 119
 252  91 158 188  14  12 238 206  95 109  76 176  44   4 124  85
  32 239 211  27 138  38 171 222 192 120  34  96 132 243  27 215
 206 253  42 179  36 177  85 249 162 182 149  11  67 229 121 137
 148 191 204 236 145 181  12 139  37 112  40  22 107  90 239 163
  56 217  45 232 222 145 134  83  44 185   3 248 110 165  24 213
 241 235 142 222  88 169   8   2 123 255  56 248  25 239 167 142
 202  17  18 114 131  81  34 149  84 188  51 232  40   3 121 139
  84  85 133 223 199   6  97 254 232  16  65 100  17  89 190 133
 151 162 241  34 185 128 204  15  95 230  82 212  64 234  76 203
  69  18 232  92 177 120 255  35 225  25 251 150 233  66 233  58
 152  56  88 209 214 127 173  87 250 164  20 208  76  86  20 179
 138  43 109 250 129 249 190  48 235 129  90 185   1  45 196  96
 209  28  87 252  51  77  93 107 190  89  15  86  42 188  63  41
 233  72  81  60  80  29 195 184 153 220 236  84 236  77  53 148
 152 214 181  87 141  54 130 116 161   2  38  12  60 126 132 114
  68 113 162  31 231 224 166 131  29 155 131  92 166 193  92 205
 241 225 246 135 235 196 241 235 125 120  82 134 165 159 114 159
 253  69   6 155  57 192 192  30  64  67 117 245  96 238 225 194
 226 215  35   0 107 227   3  74 131 123 131 209 250 194 114  66
 172 183 122 241 171 210 213 196  86  69 136  55 162  93 219 125
 175  20 157 187  15 234 213  70  69 156 181  83  20 123  53 126
  74  22  78  76  70 230  72 242 189   0 178  94  33 147   9 196
 111 110 131 217 104 186  72   5 125 166  40  12 248 160 224 234
 136  35 199 140  74 244  90 103  35 190   3 251  89 105 232  70
 215 200 240 163  94 142  71 151 217 244 159 123 190 195 108 216
 207 178 156 230 226 106 131  56 220 108  22 154  54  52 225 239
  39 254 210  87 162  91 142 175 152  86 184 218 225  40  81 244
  22 147  40 174  49 146 212 222 115  18   6  16 148  87 132 138
 104   0 236 210  52 177  61 142  85  45 111  51  30 214  64  70
   1 175 198 158  35  22 123  76 133  32  89 171 200 240  93 205
  10 227  76 158 125   3  82 123 111  71  65   0   3 197 244 179
 188 110 117  89 192 219  41   3 103 179 172  56 215  77 253 166
  37 183  28  70  70  86 137   3   4 128 216   8 129  29  63 198
 191  28  84 190  95   2  24  85 137 182 105  31   6 110  11 221
 201 205  49 209  93 223 209  92  98 139 248 173  62   0  50 149
 139 169  67 124  73 102 202 154 121 114  37 159  79  54  20   6
 183 207  13  37  57 208   0   8  11 119   8 116 233 191 135 236
  81 129 144  65 137 119  84 106 166  31  11  21 243 109 129 172
 234 216 125 225  65  66  85  87 188 162 182  41  39  87 152 166
 124 107 213 215  86 164 205  23  64 147 148 130 145  58 197 228
  37 241 132   0 116  60  48  79 209 238 201 169 193 121 160 216
  96  56 151 166 139 238 136  24 240 105 244 234 205 126 141 159
 166 238 131 112 180 222 172 112 246 143  27  55  87  35 252 111
 248 121 191 106 219 107  12 229  18 130  31 109 100 176 243  75
 150 169  45  86 221 152 190   6  89 167  37 109  37 184 165  39
 193 214 241  67 161 203 133 194 250 155  78 215  68 151 101 170
  42 224  57 124  19 233  38 125 174 250 180 179  56  86  96 172
 142 205 116 232   9 244 228  18 247 236 120 107  53 237  17  62
 187 123 139  74  55 213 114 235  25 201 148 216  10  77 106  60
 224 103 114  54 232 126  46  68 193  27 241  76 250 150 237 199
